<?xml version="1.0" standalone="no"?>
<!DOCTYPE svg PUBLIC "-//W3C//DTD SVG 20010904//EN"
 "http://www.w3.org/TR/2001/REC-SVG-20010904/DTD/svg10.dtd">
<svg version="1.0" xmlns="http://www.w3.org/2000/svg"
 width="512.000000pt" height="512.000000pt" viewBox="0 0 512.000000 512.000000"
 preserveAspectRatio="xMidYMid meet">
<metadata>
Created by potrace 1.14, written by Peter Selinger 2001-2017
</metadata>
<g transform="translate(0.000000,512.000000) scale(0.100000,-0.100000)"
fill="#000000" stroke="none">
<path d="M1696 5110 c-34 -11 -73 -45 -91 -80 -19 -38 -19 -175 1 -260 65
-289 295 -515 589 -576 11 -3 45 -6 74 -8 38 -3 59 -10 68 -22 14 -19 56 -125
51 -129 -2 -1 -25 -5 -53 -8 -150 -16 -357 -65 -480 -114 -22 -8 -49 -19 -60
-23 -133 -53 -328 -164 -453 -257 -70 -52 -285 -258 -340 -325 -101 -126 -194
-272 -259 -408 -61 -129 -68 -147 -106 -265 -70 -219 -95 -383 -95 -615 0
-148 3 -193 24 -320 3 -19 8 -48 10 -65 9 -52 63 -253 84 -307 149 -387 379
-697 692 -929 532 -396 1226 -506 1858 -293 208 70 460 209 624 345 411 340
662 794 731 1324 13 104 14 432 1 495 -2 14 -7 43 -11 64 -8 57 -31 164 -46
216 -7 25 -13 47 -14 50 -12 44 -40 123 -70 195 -186 451 -549 836 -986 1044
-212 101 -439 168 -631 187 -82 7 -109 12 -116 18 -11 12 36 151 66 195 5 7
34 15 63 17 139 11 288 84 393 190 124 125 184 256 193 420 7 117 -14 165 -86
195 -28 11 -135 13 -196 4 -61 -10 -175 -57 -236 -98 -59 -39 -146 -123 -180
-173 -23 -34 -89 -160 -89 -171 0 -5 -6 -26 -12 -48 -6 -22 -12 -80 -14 -130
-2 -81 -18 -155 -35 -155 -15 0 -30 52 -33 120 -5 84 -9 108 -38 198 -73 229
-267 415 -508 486 -65 20 -243 30 -284 16z"/>
</g>
</svg>
